<?xml version="1.0" encoding="UTF-8"?><svg id="Camada_2" xmlns="http://www.w3.org/2000/svg" viewBox="0 0 237 27.73"><defs><style>.cls-1{font-family:Soleil-Bold, Soleil;font-size:16.32px;font-weight:700;}.cls-1,.cls-2{fill:#041bd0;}.cls-3,.cls-4{fill:#fff;}.cls-5{fill:#e4eeff;}.cls-4{fill-rule:evenodd;}</style></defs><g id="Layer_1"><g><rect class="cls-5" x="0" y="0" width="174.17" height="27.73" rx="13.86" ry="13.86"/><text class="cls-1" transform="translate(15.12 19.45)"><tspan x="0" y="0">blog</tspan></text><rect class="cls-2" x="62.83" y="0" width="174.17" height="27.73" rx="13.86" ry="13.86"/><g><g><rect class="cls-3" x="94" y="6.97" width="2.36" height="12.47"/><path class="cls-3" d="M88.08,10.7c-2.47,0-4.47,2-4.47,4.47s2,4.47,4.47,4.47,4.47-2,4.47-4.47-2-4.47-4.47-4.47Zm0,6.67c-1.21,0-2.2-.98-2.2-2.2s.98-2.2,2.2-2.2,2.2,.98,2.2,2.2-.98,2.2-2.2,2.2Z"/><path class="cls-3" d="M105.59,14.14c-.73-.3-1.38-.58-1.38-1.13,0-.42,.4-.67,.85-.67,.66,0,1.28,.33,1.73,.73l.98-1.76c-.99-.59-1.54-.82-2.7-.82-1.59,0-3.12,.9-3.12,2.68,0,1.53,1.15,2.13,2.19,2.58,.86,.38,1.66,.65,1.66,1.26,0,.53-.63,.77-1.11,.77-.85,0-1.4-.38-2.06-1.03l-.94,1.67c.99,.79,1.75,1.22,3.12,1.22,1.69,0,3.36-.88,3.36-2.81,0-1.66-1.43-2.23-2.56-2.69Z"/><rect class="cls-3" x="98.1" y="10.7" width="2.36" height="8.75"/><path class="cls-3" d="M113.95,17.38c-.3,.15-.58,.25-.95,.25-.5,0-.7-.32-.76-.83-.03-.25-.03-.48-.03-.75v-3.39h2.23v-1.96h-2.23v-1.93h-1.99l-.37,1.93h-1.05v1.96h1.05v3.64c0,.52,.03,1.03,.17,1.46,.32,1.13,1.23,1.88,2.59,1.88,.68,0,1.51-.18,2.08-.52l-.73-1.75Z"/><rect class="cls-3" x="98.1" y="6.97" width="2.36" height="2.01"/></g><g><path class="cls-4" d="M134.89,12.55c.5,0,.91-.41,.91-.91s-.41-.91-.91-.91h-1.85v-1.6c0-.5-.41-.91-.91-.91s-.91,.41-.91,.91v5.96c0,2.41,1.26,4.54,3.67,4.54,.5,0,.91-.41,.91-.91s-.41-.91-.91-.91c-1.4,0-1.85-1.81-1.85-2.71v-2.54h1.85Z"/><path class="cls-4" d="M138.2,10.73c-.5,0-.91,.41-.91,.91v7.07c0,.5,.41,.91,.91,.91s.91-.41,.91-.91v-7.07c0-.24-.1-.47-.27-.64-.17-.17-.4-.27-.64-.27h0Z"/><path class="cls-4" d="M138.18,7.16c-.6,0-1.09,.49-1.09,1.1,0,.61,.49,1.1,1.1,1.1,.6,0,1.1-.49,1.1-1.1,0-.61-.49-1.1-1.1-1.1h0Z"/><path class="cls-4" d="M145.04,10.53c-2.4,0-4.36,1.96-4.36,4.36v3.82c0,.5,.41,.91,.91,.91s.91-.41,.91-.91v-3.82c0-1.4,1.14-2.54,2.54-2.54s2.54,1.14,2.54,2.54v3.82c0,.5,.41,.91,.91,.91s.91-.41,.91-.91v-3.82c0-2.41-1.96-4.36-4.36-4.36h0Z"/><path class="cls-4" d="M158.74,10.73c-.24,0-.47,.1-.64,.27-.17,.17-.27,.4-.27,.64v3.83c0,1.4-1.14,2.53-2.54,2.53s-2.54-1.14-2.54-2.54v-3.82c0-.5-.41-.91-.91-.91s-.91,.41-.91,.91v3.82c0,2.41,1.96,4.36,4.36,4.36,.81,0,2.09-.59,2.54-1.17v1.09c0,1.4-1.14,2.54-2.54,2.54-.33,0-.63,.17-.79,.45-.16,.28-.16,.63,0,.91,.16,.28,.47,.46,.79,.45,2.4,0,4.36-1.96,4.36-4.36V11.64c0-.5-.41-.91-.91-.91h0Z"/></g><path class="cls-3" d="M122.4,14.58v-1.57h.99v1.57h1.58v.99h-1.58v1.58h-.99v-1.58h-1.57v-.99h1.57Z"/><g><g><path class="cls-3" d="M185.89,9.58l-4.32,9.88h-2.81s-4.3-9.88-4.3-9.88h3.08s2.73,6.43,2.73,6.43l2.79-6.43h2.82Z"/><path class="cls-3" d="M193.19,12.52c.59,.56,.89,1.42,.89,2.55v4.37s-2.73,0-2.73,0v-3.94c0-1.04-.43-1.57-1.28-1.57-.47,0-.85,.15-1.13,.45-.28,.3-.42,.75-.42,1.35v3.7s-2.73,0-2.73,0v-7.65s2.61,0,2.61,0v.83c.31-.31,.67-.55,1.09-.71,.42-.16,.88-.25,1.38-.25,.97,0,1.75,.28,2.34,.85Z"/><path class="cls-3" d="M203.58,8.98v10.47s-2.61,0-2.61,0v-.76c-.51,.59-1.27,.89-2.29,.89-.71,0-1.36-.16-1.94-.49-.59-.32-1.05-.79-1.39-1.39-.34-.6-.51-1.3-.51-2.09s.17-1.48,.51-2.08c.34-.6,.8-1.06,1.39-1.38,.59-.32,1.23-.48,1.94-.48,.93,0,1.65,.26,2.16,.79v-3.48s2.73,0,2.73,0Zm-3.15,7.98c.31-.32,.46-.77,.46-1.35s-.15-1.01-.45-1.33c-.3-.32-.69-.48-1.17-.48s-.87,.16-1.18,.48c-.31,.32-.46,.76-.46,1.33s.15,1.02,.46,1.35c.31,.32,.7,.49,1.18,.49,.47,0,.86-.16,1.17-.49Z"/><path class="cls-3" d="M211.05,12.54c.68,.58,1.02,1.47,1.02,2.66v4.25s-2.55,0-2.55,0v-.99c-.39,.74-1.16,1.11-2.3,1.11-.6,0-1.13-.1-1.57-.31-.44-.21-.78-.49-1-.84-.23-.35-.34-.75-.34-1.21,0-.72,.28-1.29,.85-1.69,.57-.4,1.44-.6,2.62-.6h1.55c-.05-.81-.6-1.21-1.66-1.21-.37,0-.75,.06-1.14,.18-.38,.12-.71,.28-.98,.49l-.92-1.82c.43-.28,.96-.5,1.58-.66s1.24-.23,1.86-.23c1.3,0,2.28,.29,2.97,.87Zm-2.23,5.11c.24-.15,.41-.37,.52-.66v-.66h-1.18c-.8,0-1.19,.26-1.19,.78,0,.24,.09,.42,.27,.56,.18,.14,.43,.21,.75,.21s.59-.08,.83-.23Z"/><path class="cls-3" d="M213.45,19.13c-.32-.3-.48-.68-.48-1.14s.16-.85,.47-1.14c.31-.29,.7-.44,1.17-.44s.87,.15,1.18,.44c.31,.29,.46,.67,.46,1.14s-.16,.84-.47,1.14c-.31,.3-.7,.45-1.17,.45s-.85-.15-1.17-.45Z"/></g><path class="cls-3" d="M167.36,14.58v-1.57h.99v1.57h1.58v.99h-1.58v1.58h-.99v-1.58h-1.57v-.99h1.57Z"/></g></g></g></g></svg>